# xmcd CD database file
#
# Track frame offsets:
#	182
#	18107
#	30045
#	53532
#	67207
#	80885
#	101142
#	113732
#	131457
#	148482
#	160545
#	177345
#	190920
#	192107
#
# Disc length: 2789 seconds
#
# Revision: 0
# Processed by: cddbd v1.5PL3 Copyright (c) Steve Scherf et al.
# Submitted via: CDex 1.40Release
#
DISCID=b90ae30e
DTITLE=blue tongue - feed me
DYEAR=1994
DGENRE=Blues
TTITLE0=dirty work
TTITLE1=all in your dreams
TTITLE2=confusion reigns
TTITLE3=shaken not stirred
TTITLE4=echo valley
TTITLE5=blue
TTITLE6=as you act
TTITLE7=what you see
TTITLE8=feed me
TTITLE9=zoom city
TTITLE10=soul to soul
TTITLE11=lightning and thunder
TTITLE12=late in the evening
TTITLE13=led aztray
EXTD=YEAR: 1994 ID3G: 0
EXTT0=
EXTT1=
EXTT2=
EXTT3=
EXTT4=
EXTT5=
EXTT6=
EXTT7=
EXTT8=
EXTT9=
EXTT10=
EXTT11=
EXTT12=
EXTT13=
PLAYORDER=
